<?xml version="1.0" standalone="no"?>
<!DOCTYPE svg PUBLIC "-//W3C//DTD SVG 20010904//EN"
 "http://www.w3.org/TR/2001/REC-SVG-20010904/DTD/svg10.dtd">
<svg version="1.0" xmlns="http://www.w3.org/2000/svg"
 width="50.000000pt" height="50.000000pt" viewBox="0 0 50.000000 50.000000"
 preserveAspectRatio="xMidYMid meet">

<g transform="translate(0.000000,50.000000) scale(0.100000,-0.100000)"
fill="#000000" stroke="none">
<path d="M36 394 c-9 -8 -16 -24 -16 -35 0 -18 10 -19 230 -19 220 0 230 1
230 19 0 47 -18 51 -230 51 -167 0 -201 -2 -214 -16z"/>
<path d="M20 206 c0 -117 -1 -116 165 -116 l133 0 17 -27 c17 -28 54 -62 66
-63 14 0 63 58 80 95 20 44 25 95 9 95 -5 0 -10 23 -10 50 l0 50 -230 0 -230
0 0 -84z m230 44 c0 -6 -33 -10 -80 -10 -47 0 -80 4 -80 10 0 6 33 10 80 10
47 0 80 -4 80 -10z m194 -65 c35 -15 37 -18 31 -48 -10 -45 -52 -107 -74 -107
-23 0 -46 25 -66 73 -22 52 -19 65 18 81 42 19 48 19 91 1z"/>
</g>
</svg>
